# xmcd
#
# Track frame offsets:
#	150
#	16522
#	31203
#	49978
#	63685
#	82843
#	96905
#	112003
#	128494
#	141684
#	159776
#	173655
#	188753
#	204239
#	221831
#	234721
#	251383
#	266748
#	280835
#	300126
#	316697
#
# Disc length: 4429 seconds
#
# Revision: 1
# Processed by: cddbd v1.5.2PL0 Copyright (c) Steve Scherf et al.
# Submitted via: audiograbber 1.83.01
#
DISCID=17114b15
DTITLE=Various Artist - Country Nights CD1
DYEAR=1990
DGENRE=Country
TTITLE0=Alabama - When we make love
TTITLE1=Anne Murray - Could I have this dance
TTITLE2=Baillie and the Boys - (Wish I had a) Heart of Stone
TTITLE3=Billy Joe Royal - Love has no right
TTITLE4=Dan Seals - Addicted
TTITLE5=Dolly Parton - I will always love you
TTITLE6=Don Williams - Just as long as I have you
TTITLE7=Eddie Rabbitt - On Second thought
TTITLE8=George Strait - Let's fall to pieces together
TTITLE9=Hank Williams, Jr - Country State of Mind
TTITLE10=Highway 101 - Whiskey, If you were a woman
TTITLE11=Leon Everette - My Lady loves me (just as I am)
TTITLE12=Merle Haggard - Twinkle, Twinkle Luck Star
TTITLE13=Michael Johnson - The moon is still over her shoulder
TTITLE14=Michael Martin - What's forever for
TTITLE15=Randy Travis - Deeper than the Holler
TTITLE16=Reba McEntire - Whoever's in New England
TTITLE17=Ricky Van Shelton - I'll leave this world loving you
TTITLE18=Ronnie Milsap - Lost in the fifties tonight
TTITLE19=Steve Wariner - Small town girl
TTITLE20=The Judds - Why not me
EXTD=
EXTT0=
EXTT1=
EXTT2=
EXTT3=
EXTT4=
EXTT5=
EXTT6=
EXTT7=
EXTT8=
EXTT9=
EXTT10=
EXTT11=
EXTT12=
EXTT13=
EXTT14=
EXTT15=
EXTT16=
EXTT17=
EXTT18=
EXTT19=
EXTT20=
PLAYORDER=
